PathFileType	4	(X/Y/Z)	c:/Users/goper/Files/vsCode/490R/osim_files/C07/C07_Static.trc
DataRate	CameraRate	NumFrames	NumMarkers	Units                	OrigDataRate	OrigDataStartFrame	OrigNumFrames
250.00	250.00	10	36	mm	250.0	195	1554
                Frame#	Time	LPSIS			LASIS			LTH1			LTH2			LTH3			LTH4			LLFE			LMFE			LSH1			LSH2			LSH3			LSH4			LLMAL			LMMAL			LCAL			LMTP5			LTOE			LMTP1			RPSIS			RASIS			RTH1			RTH2			RTH3			RTH4			RLFE			RMFE			RSH1			RSH2			RSH3			RSH4			RLMAL			RMMAL			RCAL			RMTP1			RTOE			RMTP5		
		X1	Y1	Z1	X2	Y2	Z2	X3	Y3	Z3	X4	Y4	Z4	X5	Y5	Z5	X6	Y6	Z6	X7	Y7	Z7	X8	Y8	Z8	X9	Y9	Z9	X10	Y10	Z10	X11	Y11	Z11	X12	Y12	Z12	X13	Y13	Z13	X14	Y14	Z14	X15	Y15	Z15	X16	Y16	Z16	X17	Y17	Z17	X18	Y18	Z18	X19	Y19	Z19	X20	Y20	Z20	X21	Y21	Z21	X22	Y22	Z22	X23	Y23	Z23	X24	Y24	Z24	X25	Y25	Z25	X26	Y26	Z26	X27	Y27	Z27	X28	Y28	Z28	X29	Y29	Z29	X30	Y30	Z30	X31	Y31	Z31	X32	Y32	Z32	X33	Y33	Z33	X34	Y34	Z34	X35	Y35	Z35	X36	Y36	Z36

195	0.77600	-397.10886	1031.54773	363.03027	-233.66862	986.27039	282.61591	-316.05331	800.12781	218.68094	-315.59760	721.71918	215.37320	-315.36484	645.46118	224.05255	-239.24084	722.17456	243.84862	-345.59009	524.51312	240.21605	-354.47021	502.86368	361.58145	-382.58105	337.95325	215.04132	-399.70026	292.89825	225.84798	-343.83340	342.13535	229.97206	-347.97964	296.52948	234.42793	-406.07919	109.48136	258.11017	-382.86310	127.37688	332.18060	-465.46536	47.14761	301.17551	-282.10495	41.09448	226.42534	-226.55673	52.58836	282.80923	-256.87701	41.35584	333.29205	-389.69916	1034.14441	463.56329	-234.10727	976.25928	535.81042	-286.24240	829.01422	595.49469	-289.23602	749.15399	596.91089	-296.57462	667.79547	591.17395	-222.40833	744.24493	555.39691	-324.58469	496.78406	556.23566	-338.90906	501.19037	444.53342	-395.19043	322.18576	578.46344	-368.00137	272.90494	580.47321	-334.05408	321.23135	572.23914	-338.16693	276.64108	569.43866	-402.25272	97.84108	540.62329	-377.92618	105.37772	461.81775	-453.74527	45.55929	498.79797	-245.31482	39.68222	464.42920	-219.20128	51.99419	511.73532	-264.07660	36.93664	573.23260
196	0.78000	-397.13235	1031.56494	363.07452	-233.65829	986.28278	282.61920	-316.02783	800.13916	218.67656	-315.60858	721.74957	215.37512	-315.38641	645.45673	224.06082	-239.24840	722.16888	243.88541	-345.64160	524.54047	240.22743	-354.51898	502.86951	361.55463	-382.57239	337.96832	215.06438	-399.68124	292.88901	225.87247	-343.86874	342.13309	230.02094	-347.99588	296.54315	234.43918	-406.06964	109.45712	258.12155	-382.83487	127.36034	332.19717	-465.45316	47.16425	301.18176	-282.10449	41.09506	226.44194	-226.54143	52.60371	282.86642	-256.89465	41.41969	333.35034	-389.66348	1034.10938	463.54382	-234.02348	976.23456	535.78473	-286.19592	828.96893	595.50311	-289.19934	749.15387	596.92773	-296.57666	667.71393	591.15210	-222.35757	744.25208	555.40472	-324.58466	496.78625	556.29083	-338.88919	501.18298	444.54373	-395.19379	322.18314	578.49127	-368.00375	272.89661	580.51312	-334.02765	321.20605	572.25073	-338.14252	276.62534	569.47467	-402.21405	97.79665	540.60181	-377.92935	105.36247	461.84830	-453.73083	45.52305	498.80676	-245.36478	39.66481	464.51364	-219.20570	51.98767	511.77814	-264.01984	36.90507	573.24603
197	0.78400	-397.11072	1031.56897	363.07791	-233.63739	986.30396	282.61905	-316.03754	800.14771	218.70839	-315.62686	721.75012	215.39838	-315.37396	645.47290	224.05295	-239.28635	722.16364	243.89804	-345.65329	524.57812	240.23473	-354.47488	502.81894	361.53497	-382.57916	337.98807	215.06638	-399.72430	292.84265	225.89183	-343.88013	342.16312	230.01724	-347.95251	296.56863	234.44887	-406.08588	109.47992	258.14993	-382.55185	127.22193	332.11713	-465.43835	47.18179	301.23679	-282.03311	41.10221	226.43303	-226.42178	52.61533	282.90955	-256.74557	41.38462	333.36716	-389.64774	1034.12854	463.58279	-233.91747	976.22333	535.74048	-286.01648	828.90692	595.47473	-289.02563	749.07965	596.86951	-296.34399	667.55762	590.94165	-222.25110	744.26770	555.34509	-324.37808	496.63348	556.11163	-338.90134	501.18680	444.55017	-394.90399	322.04666	578.45172	-367.76837	272.78174	580.44128	-333.87473	321.22345	572.19934	-338.05954	276.60629	569.44275	-401.96597	97.67098	540.54926	-377.91617	105.38078	461.83960	-453.13846	45.38211	498.69034	-245.25578	39.71033	464.42648	-219.12637	52.00216	511.75662	-263.90674	36.88765	573.19836
198	0.78800	-397.07376	1031.55823	363.16153	-233.65109	986.27661	282.63556	-316.06793	800.11749	218.71541	-315.60950	721.74426	215.38875	-315.36926	645.46222	224.05849	-239.25815	722.20337	243.84036	-345.65546	524.61072	240.25105	-354.42529	502.80685	361.58301	-382.56479	337.97513	215.07594	-399.70944	292.83765	225.89830	-343.86142	342.12982	230.03575	-347.99881	296.56638	234.45187	-406.06451	109.47456	258.14038	-382.34824	127.13032	332.06842	-465.42908	47.14974	301.24854	-281.94736	41.10278	226.38110	-226.34482	52.63903	282.88577	-256.54218	41.40191	333.28497	-389.55164	1034.09546	463.62842	-233.70844	976.18365	535.65442	-285.77472	828.80035	595.44843	-288.80371	749.01733	596.86200	-296.10004	667.38635	590.80341	-222.10852	744.23181	555.29492	-324.17084	496.42780	555.90393	-338.86880	501.18118	444.56277	-394.72131	321.98660	578.40540	-367.49448	272.67737	580.41302	-333.75879	321.13504	572.16516	-337.91354	276.53781	569.36255	-401.72162	97.53155	540.55316	-377.92316	105.37827	461.86441	-453.51535	45.47984	498.85388	-245.15285	39.72727	464.36688	-219.07103	51.90964	511.77481	-263.80673	36.83314	573.18890
199	0.79200	-397.07010	1031.52173	363.20837	-233.61407	986.27167	282.61844	-316.06592	800.12805	218.70917	-315.63892	721.75757	215.40471	-315.39966	645.45227	224.06145	-239.24554	722.17114	243.82883	-345.63480	524.60925	240.24725	-354.39651	502.77869	361.60541	-382.57516	337.99136	215.06949	-399.68222	292.87805	225.85381	-343.84015	342.12613	230.01237	-347.97784	296.55719	234.44135	-406.03299	109.48202	258.14536	-382.26804	127.07760	332.06921	-465.41806	47.12378	301.27048	-281.92413	41.08964	226.38165	-226.28496	52.56958	282.92227	-256.51978	41.37199	333.26379	-389.53220	1034.06519	463.67413	-233.68137	976.09961	535.67517	-285.64423	828.76013	595.44281	-288.65384	748.95258	596.84888	-296.02374	667.15247	590.78564	-222.06886	744.19568	555.27478	-324.07175	496.27347	555.84796	-338.83841	501.18170	444.54980	-394.65131	321.97656	578.41577	-367.38834	272.59818	580.43579	-333.74503	321.09866	572.17010	-337.91937	276.48718	569.41064	-401.62952	97.48032	540.58966	-377.88275	105.37203	461.83255	-453.45892	45.46857	498.88968	-245.08310	39.72769	464.31558	-219.06981	51.89087	511.76187	-263.82953	36.79110	573.23401
200	0.79600	-397.03558	1031.47131	363.26248	-233.61674	986.25061	282.60391	-316.07288	800.11072	218.68510	-315.63834	721.72852	215.41580	-315.39401	645.43756	224.05870	-239.23766	722.17438	243.80275	-345.63815	524.59357	240.25494	-354.28308	502.69626	361.62610	-382.56854	337.94858	215.07495	-399.71481	292.80701	225.87190	-343.83020	342.09213	230.00308	-348.00717	296.51938	234.46288	-406.01810	109.45149	258.12976	-382.32516	127.07555	332.09970	-465.38623	47.05108	301.28055	-281.95258	41.08809	226.38976	-226.34244	52.60866	282.84070	-256.55054	41.36066	333.14038	-389.53802	1034.02734	463.75049	-233.67030	976.07281	535.67084	-285.69193	828.74042	595.53796	-288.72119	748.94287	596.87848	-296.11230	667.22675	590.91321	-222.07239	744.15399	555.27533	-324.17133	496.27029	555.93311	-338.81973	501.15891	444.56161	-394.68881	321.96344	578.45044	-367.45648	272.62204	580.47467	-333.78040	321.02722	572.18628	-337.97162	276.43808	569.44513	-401.68265	97.50928	540.62500	-377.87769	105.35110	461.81836	-453.48947	45.46001	498.92349	-245.14264	39.70847	464.33453	-219.11810	51.81700	511.79303	-263.85028	36.76279	573.24756
201	0.80000	-396.99307	1031.40417	363.28122	-233.61427	986.22675	282.59793	-316.07663	800.08527	218.66759	-315.65469	721.70428	215.37163	-315.37247	645.41827	224.02840	-239.27692	722.11572	243.78793	-345.62915	524.55090	240.26413	-354.23196	502.66672	361.65915	-382.59589	337.94125	215.06323	-399.71661	292.78400	225.87363	-343.85815	342.07230	229.98085	-348.00601	296.46878	234.41833	-406.03186	109.43504	258.09283	-382.52597	127.17879	332.12939	-465.37903	47.01433	301.28918	-281.97241	41.10072	226.33594	-226.37831	52.65271	282.68927	-256.62979	41.46855	333.01443	-389.42227	1033.93970	463.75986	-233.74089	976.08112	535.70880	-285.76038	828.84003	595.53943	-288.83664	749.00946	596.90637	-296.18182	667.32837	590.99530	-222.07281	744.14734	555.24799	-324.22998	496.46515	556.06201	-338.84964	501.15131	444.56284	-394.75629	322.02136	578.42566	-367.66132	272.72079	580.53223	-333.83261	321.08517	572.18848	-338.03589	276.44772	569.45563	-401.80673	97.56767	540.65137	-377.89774	105.31420	461.82901	-452.98358	45.25348	498.84204	-245.09387	39.75849	464.23264	-219.15421	51.81994	511.76062	-263.88718	36.80133	573.21521
202	0.80400	-396.94598	1031.33484	363.30188	-233.62300	986.20306	282.58441	-316.10684	800.07727	218.67307	-315.64285	721.68036	215.41319	-315.39896	645.40411	224.04121	-239.24048	722.14093	243.69722	-345.62894	524.50885	240.24933	-354.23352	502.62173	361.67719	-382.57629	337.92270	215.06310	-399.71289	292.77243	225.85715	-343.87601	342.03116	229.97682	-347.99796	296.48282	234.39464	-406.06686	109.39420	258.11206	-382.54517	127.23481	332.10864	-465.35556	46.94716	301.27072	-281.97684	41.11386	226.29489	-226.39749	52.77528	282.49731	-256.61484	41.63000	332.77271	-389.37006	1033.91138	463.79971	-233.61029	976.14227	535.59839	-285.75235	828.85535	595.50305	-288.82144	749.04065	596.89465	-296.11725	667.51031	590.91693	-222.02763	744.15417	555.19543	-324.21786	496.56174	556.03754	-338.84683	501.12802	444.56174	-394.84979	322.14233	578.40363	-367.67773	272.76276	580.49512	-333.80115	321.12744	572.13861	-337.99731	276.49487	569.39679	-401.86261	97.63010	540.62695	-377.91330	105.29900	461.82047	-453.55939	45.49761	498.85376	-245.04733	39.84462	464.10413	-219.08678	51.87824	511.65552	-263.91129	36.82626	573.21313
203	0.80800	-396.91476	1031.29761	363.28867	-233.63342	986.20062	282.57474	-316.09900	800.07843	218.67195	-315.65387	721.69556	215.39780	-315.43579	645.39453	224.02393	-239.27336	722.13666	243.71033	-345.56265	524.46710	240.25549	-354.24542	502.62634	361.66168	-382.57095	337.92761	215.05486	-399.66510	292.85812	225.77713	-343.84293	342.04898	229.93411	-347.93198	296.50809	234.34007	-406.06073	109.39088	258.08417	-382.42737	127.25900	331.99570	-465.32788	46.92180	301.25824	-281.92300	41.16220	226.22025	-226.30174	52.82087	282.33762	-256.44522	41.75700	332.51187	-389.15140	1033.34949	464.23682	-233.46301	976.20654	535.47717	-285.59631	828.86029	595.43823	-288.67075	749.08929	596.82764	-295.93091	667.41003	590.67645	-221.88194	744.22504	555.07642	-324.06870	496.54480	555.71954	-338.86102	501.12671	444.57220	-394.71741	322.13068	578.33765	-367.48245	272.72485	580.42938	-333.64645	321.20944	572.02911	-337.83359	276.59409	569.28009	-401.72861	97.63662	540.54510	-377.91245	105.28968	461.82214	-453.52313	45.49147	498.82309	-244.90190	39.96414	463.95395	-219.00009	51.96339	511.51935	-263.85510	36.85946	573.17407
204	0.81200	-396.86282	1031.30530	363.28375	-233.57419	986.21851	282.53619	-316.12619	800.06616	218.69789	-315.67059	721.69592	215.38675	-315.39862	645.40399	224.02185	-239.30742	722.11945	243.70590	-345.55960	524.45715	240.23665	-354.28891	502.66986	361.68665	-382.59650	337.91324	215.04660	-399.67294	292.85052	225.80173	-343.81253	342.06363	229.91530	-347.96146	296.51144	234.36865	-406.05383	109.38551	258.07092	-382.20657	127.21018	331.89609	-465.33398	46.93865	301.20291	-281.85599	41.19311	226.17580	-226.23766	52.84446	282.20831	-256.29199	41.81410	332.32178	-389.29648	1033.92749	463.83655	-233.26729	976.26532	535.35638	-285.33554	828.85266	595.37567	-288.47488	749.06024	596.75873	-295.77472	667.35748	590.48724	-221.77893	744.25830	554.96588	-323.93515	496.50412	555.55896	-338.84399	501.12430	444.57480	-394.64426	322.15955	578.28857	-367.28897	272.70367	580.33856	-333.46384	321.28555	571.92310	-337.66586	276.65002	569.18036	-401.56772	97.57950	540.47870	-377.91418	105.29620	461.81134	-453.44281	45.48243	498.75409	-244.77434	40.06752	463.85062	-218.87500	52.04033	511.40744	-263.77570	36.88130	573.12897
